<svg xmlns="http://www.w3.org/2000/svg" xmlns:xlink="http://www.w3.org/1999/xlink" width="500" zoomAndPan="magnify" viewBox="0 0 375 374.999991" height="500" preserveAspectRatio="xMidYMid meet" version="1.0"><defs><g/></defs><g fill="#3e71ed" fill-opacity="1"><g transform="translate(6.685878, 196.874987)"><g><path d="M 26.589844 -23.1875 L 36.699219 -23.15625 C 36.972656 -23.15625 37.191406 -23.070312 37.363281 -22.902344 C 37.53125 -22.730469 37.617188 -22.507812 37.617188 -22.238281 L 37.617188 0 C 37.617188 0.273438 37.53125 0.492188 37.363281 0.664062 C 37.191406 0.835938 36.96875 0.921875 36.699219 0.921875 L 31.738281 0.921875 C 31.464844 0.921875 31.246094 0.835938 31.074219 0.664062 C 30.90625 0.492188 30.820312 0.273438 30.820312 0 L 30.820312 -17.5 L 31.417969 -17.5 L 31.417969 -16.902344 L 28.921875 -16.902344 L 28.921875 -17.5 L 28.964844 -16.902344 C 28.414062 -16.863281 27.9375 -16.761719 27.539062 -16.597656 C 27.261719 -16.480469 27.050781 -16.164062 26.910156 -15.648438 L 22.367188 0.261719 C 22.304688 0.472656 22.191406 0.636719 22.019531 0.753906 C 21.863281 0.863281 21.679688 0.921875 21.46875 0.921875 L 16.507812 0.921875 C 16.296875 0.921875 16.113281 0.863281 15.957031 0.753906 C 15.789062 0.636719 15.671875 0.472656 15.613281 0.261719 L 11.070312 -15.640625 C 10.925781 -16.160156 10.71875 -16.480469 10.4375 -16.597656 C 10.042969 -16.761719 9.566406 -16.863281 9.011719 -16.902344 L 9.054688 -17.5 L 9.054688 -16.902344 L 6.558594 -16.902344 L 6.558594 -17.5 L 7.160156 -17.5 L 7.160156 0 C 7.160156 0.273438 7.074219 0.492188 6.902344 0.664062 C 6.734375 0.835938 6.511719 0.921875 6.238281 0.921875 L 1.28125 0.921875 C 1.007812 0.921875 0.785156 0.835938 0.617188 0.664062 C 0.445312 0.492188 0.359375 0.273438 0.359375 0 L 0.359375 -22.203125 C 0.359375 -22.476562 0.445312 -22.699219 0.617188 -22.867188 C 0.785156 -23.039062 1.007812 -23.125 1.28125 -23.125 L 11.390625 -23.125 C 12.226562 -23.125 13.027344 -22.890625 13.785156 -22.429688 C 14.503906 -21.988281 15.128906 -21.433594 15.664062 -20.773438 C 16.207031 -20.101562 16.578125 -19.402344 16.769531 -18.679688 L 19.550781 -8.800781 L 18.972656 -8.636719 L 18.394531 -8.804688 L 21.210938 -18.6875 C 21.449219 -19.46875 21.828125 -20.199219 22.355469 -20.875 C 22.882812 -21.558594 23.511719 -22.109375 24.238281 -22.53125 C 24.992188 -22.96875 25.777344 -23.1875 26.585938 -23.1875 Z M 26.585938 -21.988281 C 25.992188 -21.988281 25.410156 -21.824219 24.839844 -21.492188 C 24.246094 -21.148438 23.734375 -20.699219 23.300781 -20.140625 C 22.867188 -19.582031 22.554688 -18.988281 22.367188 -18.359375 L 18.96875 -6.4375 L 15.609375 -18.371094 C 15.460938 -18.929688 15.167969 -19.476562 14.730469 -20.019531 C 14.285156 -20.574219 13.757812 -21.035156 13.15625 -21.40625 C 12.589844 -21.75 12.003906 -21.925781 11.390625 -21.925781 L 1.28125 -21.925781 C 1.339844 -21.925781 1.398438 -21.957031 1.464844 -22.019531 C 1.527344 -22.085938 1.558594 -22.144531 1.558594 -22.203125 L 1.558594 0 C 1.558594 -0.0585938 1.527344 -0.121094 1.464844 -0.183594 C 1.398438 -0.25 1.339844 -0.28125 1.28125 -0.28125 L 6.238281 -0.28125 C 6.179688 -0.28125 6.117188 -0.25 6.054688 -0.183594 C 5.992188 -0.121094 5.957031 -0.0585938 5.957031 0 L 5.957031 -18.101562 L 9.097656 -18.101562 C 9.78125 -18.050781 10.382812 -17.921875 10.902344 -17.703125 C 11.539062 -17.433594 11.980469 -16.859375 12.222656 -15.96875 L 16.765625 -0.0703125 C 16.75 -0.128906 16.707031 -0.183594 16.644531 -0.226562 C 16.59375 -0.261719 16.550781 -0.28125 16.507812 -0.28125 L 21.46875 -0.28125 C 21.429688 -0.28125 21.382812 -0.261719 21.332031 -0.226562 C 21.269531 -0.183594 21.230469 -0.128906 21.210938 -0.0703125 L 25.753906 -15.964844 C 25.996094 -16.855469 26.4375 -17.433594 27.074219 -17.703125 C 27.59375 -17.921875 28.199219 -18.050781 28.882812 -18.101562 L 32.019531 -18.101562 L 32.019531 0 C 32.019531 -0.0585938 31.988281 -0.121094 31.921875 -0.183594 C 31.859375 -0.25 31.796875 -0.28125 31.738281 -0.28125 L 36.699219 -0.28125 C 36.640625 -0.28125 36.578125 -0.25 36.515625 -0.183594 C 36.449219 -0.121094 36.417969 -0.0585938 36.417969 0 L 36.417969 -22.238281 C 36.417969 -22.175781 36.449219 -22.117188 36.515625 -22.050781 C 36.578125 -21.988281 36.636719 -21.957031 36.695312 -21.957031 Z M 36.695312 -21.636719 L 26.585938 -21.667969 C 25.992188 -21.667969 25.4375 -21.519531 24.921875 -21.222656 C 24.386719 -20.910156 23.929688 -20.496094 23.554688 -19.980469 C 23.164062 -19.445312 22.875 -18.871094 22.679688 -18.25 L 22.109375 -18.429688 L 22.683594 -18.265625 L 18.96875 -5.296875 L 15.292969 -18.265625 C 15.027344 -19.171875 14.53125 -19.929688 13.804688 -20.546875 C 13.074219 -21.160156 12.25 -21.511719 11.328125 -21.609375 L 11.390625 -22.203125 L 11.390625 -21.605469 L 1.28125 -21.605469 L 1.28125 -22.203125 L 1.878906 -22.203125 L 1.878906 0 L 1.28125 0 L 1.28125 -0.601562 L 6.238281 -0.601562 L 6.238281 0 L 5.640625 0 L 5.640625 -18.421875 L 9.4375 -18.421875 C 10.171875 -18.421875 10.828125 -18.199219 11.40625 -17.753906 C 11.980469 -17.308594 12.359375 -16.742188 12.546875 -16.058594 L 17.085938 -0.164062 L 16.507812 0 L 16.507812 -0.601562 L 21.46875 -0.601562 L 21.46875 0 L 20.890625 -0.164062 L 25.433594 -16.066406 C 25.644531 -16.746094 26.027344 -17.308594 26.582031 -17.746094 C 27.152344 -18.195312 27.804688 -18.421875 28.539062 -18.421875 L 32.339844 -18.421875 L 32.339844 0 L 31.738281 0 L 31.738281 -0.601562 L 36.699219 -0.601562 L 36.699219 0 L 36.097656 0 L 36.097656 -22.238281 L 36.699219 -22.238281 Z M 37.296875 -22.835938 L 37.296875 0.601562 L 31.140625 0.601562 L 31.140625 -17.820312 L 31.738281 -17.820312 L 31.738281 -17.222656 L 28.539062 -17.222656 C 28.082031 -17.222656 27.675781 -17.082031 27.328125 -16.808594 C 26.96875 -16.519531 26.71875 -16.164062 26.589844 -15.738281 L 21.921875 0.601562 L 16.058594 0.601562 L 11.386719 -15.746094 C 11.273438 -16.171875 11.035156 -16.523438 10.671875 -16.800781 C 10.308594 -17.082031 9.898438 -17.222656 9.4375 -17.222656 L 6.238281 -17.222656 L 6.238281 -17.820312 L 6.839844 -17.820312 L 6.839844 0.601562 L 0.679688 0.601562 L 0.679688 -22.804688 L 11.421875 -22.804688 L 11.449219 -22.800781 C 12.621094 -22.683594 13.660156 -22.234375 14.578125 -21.464844 C 15.488281 -20.691406 16.113281 -19.734375 16.445312 -18.59375 L 19.550781 -7.652344 L 18.972656 -7.488281 L 18.394531 -7.652344 L 21.535156 -18.601562 L 21.535156 -18.609375 C 21.769531 -19.351562 22.117188 -20.046875 22.582031 -20.6875 C 23.058594 -21.339844 23.636719 -21.867188 24.320312 -22.261719 C 25.019531 -22.664062 25.777344 -22.867188 26.589844 -22.867188 L 36.699219 -22.835938 Z M 37.296875 -22.835938 "/></g></g></g><g fill="#3e71ed" fill-opacity="1"><g transform="translate(47.188542, 196.874987)"><g><path d="M 14.621094 -23.09375 L 19.230469 -23.09375 C 20.453125 -23.09375 21.585938 -22.761719 22.621094 -22.101562 C 23.664062 -21.441406 24.433594 -20.542969 24.929688 -19.40625 L 33.40625 -0.339844 L 32.859375 -0.0976562 L 33.394531 -0.363281 C 33.558594 -0.0351562 33.554688 0.265625 33.382812 0.542969 C 33.210938 0.816406 32.941406 0.953125 32.570312 0.953125 L 27.707031 0.953125 C 27.523438 0.953125 27.355469 0.902344 27.207031 0.804688 C 27.070312 0.710938 26.960938 0.585938 26.882812 0.429688 L 26.875 0.414062 L 24.984375 -3.851562 L 25.53125 -4.09375 L 25.53125 -3.496094 L 8.320312 -3.496094 L 8.320312 -4.09375 L 8.867188 -3.851562 L 6.972656 0.414062 L 6.96875 0.429688 C 6.886719 0.585938 6.78125 0.710938 6.644531 0.804688 C 6.496094 0.902344 6.328125 0.953125 6.144531 0.953125 L 1.28125 0.953125 C 0.910156 0.953125 0.636719 0.816406 0.46875 0.542969 C 0.292969 0.265625 0.289062 -0.0351562 0.457031 -0.363281 L 0.992188 -0.0976562 L 0.445312 -0.339844 L 8.953125 -19.410156 C 9.449219 -20.542969 10.210938 -21.4375 11.242188 -22.101562 C 12.269531 -22.761719 13.394531 -23.09375 14.621094 -23.09375 Z M 14.621094 -21.890625 C 13.628906 -21.890625 12.71875 -21.625 11.890625 -21.09375 C 11.066406 -20.558594 10.449219 -19.835938 10.050781 -18.921875 L 1.535156 0.160156 L 1.527344 0.171875 C 1.535156 0.160156 1.539062 0.140625 1.539062 0.109375 C 1.542969 0.0390625 1.523438 -0.03125 1.484375 -0.09375 C 1.445312 -0.160156 1.390625 -0.207031 1.324219 -0.234375 C 1.308594 -0.242188 1.292969 -0.246094 1.277344 -0.246094 L 1.28125 -0.25 L 6.144531 -0.25 C 6.085938 -0.25 6.03125 -0.230469 5.976562 -0.195312 C 5.9375 -0.167969 5.910156 -0.140625 5.894531 -0.109375 L 6.429688 0.160156 L 5.882812 -0.0820312 L 7.929688 -4.695312 L 25.921875 -4.695312 L 27.96875 -0.0820312 L 27.417969 0.160156 L 27.957031 -0.109375 C 27.941406 -0.140625 27.914062 -0.167969 27.871094 -0.195312 C 27.820312 -0.230469 27.765625 -0.25 27.707031 -0.25 L 32.570312 -0.25 L 32.574219 -0.246094 C 32.558594 -0.246094 32.542969 -0.242188 32.527344 -0.234375 C 32.460938 -0.207031 32.40625 -0.160156 32.367188 -0.09375 C 32.324219 -0.03125 32.308594 0.0390625 32.3125 0.109375 C 32.3125 0.140625 32.316406 0.160156 32.320312 0.171875 L 32.316406 0.160156 L 23.832031 -18.925781 C 23.429688 -19.835938 22.8125 -20.558594 21.976562 -21.089844 C 21.136719 -21.625 20.222656 -21.890625 19.230469 -21.890625 Z M 19.230469 -21.574219 L 14.621094 -21.574219 C 13.695312 -21.574219 12.84375 -21.320312 12.066406 -20.820312 C 11.292969 -20.320312 10.71875 -19.644531 10.339844 -18.792969 L 1.828125 0.277344 L 1.28125 0.03125 L 1.28125 -0.566406 L 6.144531 -0.566406 L 6.144531 0.03125 L 5.59375 -0.210938 L 7.738281 -5.015625 L 26.148438 -5.015625 L 28.257812 -0.210938 L 27.707031 0.03125 L 27.707031 -0.566406 L 32.570312 -0.566406 L 32.570312 0.03125 L 32.023438 0.277344 L 23.542969 -18.792969 C 23.164062 -19.644531 22.589844 -20.320312 21.816406 -20.820312 C 21.039062 -21.320312 20.175781 -21.574219 19.230469 -21.574219 Z M 19.230469 -22.773438 C 20.414062 -22.773438 21.492188 -22.457031 22.464844 -21.828125 C 23.441406 -21.199219 24.164062 -20.347656 24.640625 -19.28125 L 33.496094 0.632812 L 27.316406 0.632812 L 25.207031 -4.175781 L 25.757812 -4.414062 L 25.757812 -3.816406 L 8.125 -3.816406 L 8.125 -4.414062 L 8.675781 -4.171875 L 6.53125 0.632812 L 0.355469 0.632812 L 9.242188 -19.28125 C 9.71875 -20.347656 10.441406 -21.199219 11.417969 -21.828125 C 12.390625 -22.457031 13.457031 -22.773438 14.621094 -22.773438 Z M 9.5625 -9.074219 L 13.175781 -17.203125 L 13.726562 -16.957031 L 13.171875 -17.1875 C 13.328125 -17.558594 13.554688 -17.839844 13.855469 -18.035156 C 14.152344 -18.230469 14.503906 -18.324219 14.910156 -18.324219 L 18.941406 -18.324219 C 19.34375 -18.324219 19.695312 -18.230469 19.996094 -18.039062 C 20.300781 -17.847656 20.535156 -17.570312 20.703125 -17.207031 L 24.695312 -8.230469 L 9.1875 -8.230469 Z M 10.660156 -8.585938 L 10.109375 -8.832031 L 10.109375 -9.429688 L 23.773438 -9.429688 L 23.773438 -8.832031 L 23.222656 -8.585938 L 19.613281 -16.707031 C 19.542969 -16.855469 19.457031 -16.960938 19.355469 -17.027344 C 19.25 -17.09375 19.113281 -17.125 18.941406 -17.125 L 14.910156 -17.125 C 14.738281 -17.125 14.605469 -17.09375 14.507812 -17.03125 C 14.414062 -16.96875 14.339844 -16.867188 14.28125 -16.726562 L 14.277344 -16.71875 Z M 10.589844 -9.75 L 23.292969 -9.75 L 23.292969 -9.152344 L 22.746094 -8.90625 L 19.320312 -16.585938 C 19.285156 -16.664062 19.242188 -16.71875 19.191406 -16.75 C 19.136719 -16.789062 19.050781 -16.804688 18.941406 -16.804688 L 14.910156 -16.804688 C 14.8125 -16.804688 14.742188 -16.789062 14.691406 -16.757812 C 14.640625 -16.726562 14.597656 -16.667969 14.5625 -16.585938 L 11.136719 -8.90625 L 10.589844 -9.152344 Z M 9.664062 -8.550781 L 13.464844 -17.074219 C 13.597656 -17.375 13.792969 -17.605469 14.042969 -17.765625 C 14.289062 -17.925781 14.578125 -18.003906 14.910156 -18.003906 L 18.941406 -18.003906 C 19.277344 -18.003906 19.574219 -17.925781 19.824219 -17.769531 C 20.085938 -17.609375 20.28125 -17.378906 20.417969 -17.074219 L 24.214844 -8.550781 Z M 9.664062 -8.550781 "/></g></g></g><g fill="#3e71ed" fill-opacity="1"><g transform="translate(80.524699, 196.874987)"><g><path d="M 12.636719 -23.09375 L 29.210938 -23.09375 C 29.484375 -23.09375 29.707031 -23.007812 29.875 -22.835938 C 30.046875 -22.667969 30.132812 -22.445312 30.132812 -22.171875 L 30.132812 -17.726562 C 30.132812 -17.453125 30.046875 -17.230469 29.875 -17.0625 C 29.707031 -16.890625 29.484375 -16.804688 29.210938 -16.804688 L 12.636719 -16.804688 C 11.609375 -16.804688 10.707031 -16.546875 9.933594 -16.027344 C 9.144531 -15.5 8.527344 -14.800781 8.085938 -13.933594 C 7.636719 -13.058594 7.414062 -12.105469 7.414062 -11.070312 C 7.414062 -10.035156 7.636719 -9.082031 8.085938 -8.207031 C 8.527344 -7.339844 9.144531 -6.640625 9.933594 -6.113281 C 10.707031 -5.59375 11.609375 -5.335938 12.636719 -5.335938 L 23.933594 -5.335938 L 23.933594 -4.734375 L 23.332031 -4.734375 L 23.332031 -7.648438 L 23.933594 -7.648438 L 23.933594 -7.046875 L 19.964844 -7.046875 C 19.691406 -7.046875 19.472656 -7.132812 19.300781 -7.300781 C 19.128906 -7.472656 19.046875 -7.695312 19.046875 -7.964844 L 19.046875 -12.414062 C 19.046875 -12.6875 19.128906 -12.90625 19.300781 -13.078125 C 19.472656 -13.25 19.691406 -13.335938 19.964844 -13.335938 L 29.210938 -13.335938 C 29.484375 -13.335938 29.707031 -13.25 29.875 -13.078125 C 30.046875 -12.90625 30.132812 -12.6875 30.132812 -12.414062 L 30.132812 0.03125 C 30.132812 0.304688 30.046875 0.527344 29.875 0.695312 C 29.707031 0.867188 29.484375 0.953125 29.210938 0.953125 L 12.636719 0.953125 C 10.960938 0.953125 9.378906 0.648438 7.898438 0.0429688 C 6.421875 -0.5625 5.117188 -1.40625 3.984375 -2.496094 C 2.847656 -3.585938 1.960938 -4.859375 1.320312 -6.316406 C 0.679688 -7.78125 0.359375 -9.367188 0.359375 -11.070312 C 0.359375 -12.773438 0.679688 -14.359375 1.320312 -15.824219 C 1.960938 -17.28125 2.847656 -18.554688 3.984375 -19.644531 C 5.117188 -20.734375 6.421875 -21.578125 7.898438 -22.183594 C 9.378906 -22.789062 10.960938 -23.09375 12.636719 -23.09375 Z M 12.636719 -21.890625 C 11.117188 -21.890625 9.6875 -21.621094 8.355469 -21.074219 C 7.015625 -20.527344 5.835938 -19.761719 4.816406 -18.78125 C 3.796875 -17.800781 2.996094 -16.652344 2.421875 -15.339844 C 1.847656 -14.03125 1.558594 -12.609375 1.558594 -11.070312 C 1.558594 -9.53125 1.847656 -8.109375 2.421875 -6.800781 C 2.996094 -5.484375 3.796875 -4.339844 4.816406 -3.359375 C 5.835938 -2.378906 7.015625 -1.613281 8.355469 -1.066406 C 9.6875 -0.519531 11.117188 -0.25 12.636719 -0.25 L 29.210938 -0.25 C 29.152344 -0.25 29.089844 -0.214844 29.027344 -0.152344 C 28.964844 -0.0898438 28.929688 -0.0273438 28.929688 0.03125 L 28.929688 -12.414062 C 28.929688 -12.355469 28.964844 -12.292969 29.027344 -12.230469 C 29.089844 -12.164062 29.152344 -12.132812 29.210938 -12.132812 L 19.964844 -12.132812 C 20.023438 -12.132812 20.085938 -12.164062 20.148438 -12.230469 C 20.214844 -12.292969 20.246094 -12.355469 20.246094 -12.414062 L 20.246094 -7.964844 C 20.246094 -8.027344 20.214844 -8.085938 20.148438 -8.152344 C 20.085938 -8.214844 20.023438 -8.246094 19.964844 -8.246094 L 24.53125 -8.246094 L 24.53125 -4.136719 L 12.636719 -4.136719 C 11.363281 -4.136719 10.238281 -4.460938 9.265625 -5.117188 C 8.304688 -5.761719 7.554688 -6.609375 7.015625 -7.660156 C 6.480469 -8.707031 6.214844 -9.84375 6.214844 -11.070312 C 6.214844 -12.296875 6.480469 -13.433594 7.015625 -14.480469 C 7.554688 -15.53125 8.304688 -16.378906 9.265625 -17.023438 C 10.238281 -17.679688 11.363281 -18.003906 12.636719 -18.003906 L 29.210938 -18.003906 C 29.152344 -18.003906 29.089844 -17.972656 29.027344 -17.910156 C 28.964844 -17.84375 28.929688 -17.785156 28.929688 -17.726562 L 28.929688 -22.171875 C 28.929688 -22.113281 28.964844 -22.050781 29.027344 -21.988281 C 29.089844 -21.925781 29.152344 -21.890625 29.210938 -21.890625 Z M 29.210938 -21.574219 L 12.636719 -21.574219 C 11.160156 -21.574219 9.769531 -21.304688 8.464844 -20.769531 C 7.160156 -20.234375 6.011719 -19.488281 5.023438 -18.539062 C 4.035156 -17.59375 3.265625 -16.484375 2.710938 -15.214844 C 2.15625 -13.945312 1.878906 -12.566406 1.878906 -11.070312 C 1.878906 -9.597656 2.15625 -8.21875 2.710938 -6.941406 C 3.265625 -5.660156 4.035156 -4.546875 5.023438 -3.601562 C 6.011719 -2.652344 7.160156 -1.90625 8.464844 -1.371094 C 9.769531 -0.835938 11.160156 -0.566406 12.636719 -0.566406 L 29.210938 -0.566406 L 29.210938 0.03125 L 28.613281 0.03125 L 28.613281 -12.414062 L 29.210938 -12.414062 L 29.210938 -11.8125 L 19.964844 -11.8125 L 19.964844 -12.414062 L 20.566406 -12.414062 L 20.566406 -7.964844 L 19.964844 -7.964844 L 19.964844 -8.566406 L 24.851562 -8.566406 L 24.851562 -3.816406 L 12.636719 -3.816406 C 11.394531 -3.816406 10.257812 -4.132812 9.234375 -4.769531 C 8.21875 -5.398438 7.40625 -6.261719 6.800781 -7.355469 C 6.199219 -8.449219 5.894531 -9.6875 5.894531 -11.070312 C 5.894531 -12.453125 6.199219 -13.691406 6.800781 -14.785156 C 7.40625 -15.878906 8.21875 -16.742188 9.234375 -17.371094 C 10.257812 -18.007812 11.394531 -18.324219 12.636719 -18.324219 L 29.210938 -18.324219 L 29.210938 -17.726562 L 28.613281 -17.726562 L 28.613281 -22.171875 L 29.210938 -22.171875 Z M 29.8125 -22.773438 L 29.8125 -17.125 L 12.636719 -17.125 C 11.621094 -17.125 10.699219 -16.867188 9.867188 -16.351562 C 9.027344 -15.832031 8.355469 -15.113281 7.851562 -14.203125 C 7.347656 -13.292969 7.09375 -12.246094 7.09375 -11.070312 C 7.09375 -9.894531 7.347656 -8.847656 7.851562 -7.9375 C 8.355469 -7.027344 9.027344 -6.308594 9.867188 -5.789062 C 10.699219 -5.273438 11.621094 -5.015625 12.636719 -5.015625 L 24.253906 -5.015625 L 24.253906 -4.414062 L 23.652344 -4.414062 L 23.652344 -7.964844 L 24.253906 -7.964844 L 24.253906 -7.367188 L 19.363281 -7.367188 L 19.363281 -13.015625 L 29.8125 -13.015625 L 29.8125 0.632812 L 12.636719 0.632812 C 11.003906 0.632812 9.460938 0.335938 8.011719 -0.261719 C 6.566406 -0.855469 5.292969 -1.679688 4.191406 -2.734375 C 3.089844 -3.792969 2.226562 -5.035156 1.609375 -6.464844 C 0.988281 -7.894531 0.679688 -9.429688 0.679688 -11.070312 C 0.679688 -12.730469 0.988281 -14.273438 1.609375 -15.695312 C 2.226562 -17.109375 3.089844 -18.347656 4.191406 -19.40625 C 5.292969 -20.460938 6.566406 -21.285156 8.011719 -21.878906 C 9.460938 -22.476562 11.003906 -22.773438 12.636719 -22.773438 Z M 29.8125 -22.773438 "/></g></g></g><g fill="#3e71ed" fill-opacity="1"><g transform="translate(113.541199, 196.874987)"><g><path d="M 24.066406 -15.421875 L 24.066406 -22.203125 C 24.066406 -22.476562 24.152344 -22.699219 24.324219 -22.867188 C 24.496094 -23.039062 24.714844 -23.125 24.988281 -23.125 L 29.949219 -23.125 C 30.21875 -23.125 30.441406 -23.039062 30.613281 -22.867188 C 30.78125 -22.699219 30.867188 -22.476562 30.867188 -22.203125 L 30.867188 0.03125 C 30.867188 0.304688 30.78125 0.527344 30.613281 0.695312 C 30.441406 0.867188 30.21875 0.953125 29.949219 0.953125 L 24.988281 0.953125 C 24.714844 0.953125 24.496094 0.867188 24.324219 0.695312 C 24.152344 0.527344 24.066406 0.304688 24.066406 0.03125 L 24.066406 -9.949219 L 24.667969 -9.949219 L 24.449219 -9.390625 L 6.339844 -16.429688 L 6.558594 -16.988281 L 7.160156 -16.988281 L 7.160156 0.03125 C 7.160156 0.304688 7.074219 0.527344 6.902344 0.695312 C 6.734375 0.867188 6.511719 0.953125 6.238281 0.953125 L 1.28125 0.953125 C 1.007812 0.953125 0.785156 0.867188 0.617188 0.695312 C 0.445312 0.527344 0.359375 0.304688 0.359375 0.03125 L 0.359375 -22.203125 C 0.359375 -22.476562 0.445312 -22.699219 0.617188 -22.867188 C 0.785156 -23.039062 1.007812 -23.125 1.28125 -23.125 L 6.335938 -23.125 L 6.476562 -23.078125 C 6.445312 -23.085938 6.410156 -23.09375 6.367188 -23.09375 L 6.480469 -23.09375 L 24.882812 -15.980469 L 24.667969 -15.421875 Z M 25.269531 -14.546875 L 6.152344 -21.933594 L 6.367188 -22.492188 L 6.367188 -21.890625 C 6.28125 -21.890625 6.191406 -21.90625 6.097656 -21.9375 L 6.050781 -21.957031 L 6.238281 -22.523438 L 6.238281 -21.925781 L 1.28125 -21.925781 C 1.339844 -21.925781 1.398438 -21.957031 1.464844 -22.019531 C 1.527344 -22.085938 1.558594 -22.144531 1.558594 -22.203125 L 1.558594 0.03125 C 1.558594 -0.0273438 1.527344 -0.0898438 1.464844 -0.152344 C 1.398438 -0.214844 1.339844 -0.25 1.28125 -0.25 L 6.238281 -0.25 C 6.179688 -0.25 6.117188 -0.214844 6.054688 -0.152344 C 5.992188 -0.0898438 5.957031 -0.0273438 5.957031 0.03125 L 5.957031 -17.867188 L 25.269531 -10.359375 L 25.269531 0.03125 C 25.269531 -0.0273438 25.234375 -0.0898438 25.171875 -0.152344 C 25.109375 -0.214844 25.046875 -0.25 24.988281 -0.25 L 29.949219 -0.25 C 29.886719 -0.25 29.828125 -0.214844 29.761719 -0.152344 C 29.699219 -0.0898438 29.667969 -0.0273438 29.667969 0.03125 L 29.667969 -22.203125 C 29.667969 -22.144531 29.699219 -22.085938 29.761719 -22.019531 C 29.828125 -21.957031 29.886719 -21.925781 29.949219 -21.925781 L 24.988281 -21.925781 C 25.046875 -21.925781 25.109375 -21.957031 25.171875 -22.019531 C 25.234375 -22.085938 25.269531 -22.144531 25.269531 -22.203125 Z M 25.589844 -22.203125 L 25.589844 -14.066406 L 6.023438 -21.644531 L 6.238281 -22.203125 L 6.238281 -21.605469 L 1.28125 -21.605469 L 1.28125 -22.203125 L 1.878906 -22.203125 L 1.878906 0.03125 L 1.28125 0.03125 L 1.28125 -0.566406 L 6.238281 -0.566406 L 6.238281 0.03125 L 5.640625 0.03125 L 5.640625 -18.347656 L 25.589844 -10.585938 L 25.589844 0.03125 L 24.988281 0.03125 L 24.988281 -0.566406 L 29.949219 -0.566406 L 29.949219 0.03125 L 29.347656 0.03125 L 29.347656 -22.203125 L 29.949219 -22.203125 L 29.949219 -21.605469 L 24.988281 -21.605469 L 24.988281 -22.203125 Z M 24.386719 -22.804688 L 30.546875 -22.804688 L 30.546875 0.632812 L 24.386719 0.632812 L 24.386719 -10.175781 L 24.988281 -10.175781 L 24.769531 -9.617188 L 6.019531 -16.910156 L 6.238281 -17.46875 L 6.839844 -17.46875 L 6.839844 0.632812 L 0.679688 0.632812 L 0.679688 -22.804688 L 6.351562 -22.804688 L 25.203125 -15.5 L 24.988281 -14.941406 L 24.386719 -14.941406 Z M 24.386719 -22.804688 "/></g></g></g><g fill="#3e71ed" fill-opacity="1"><g transform="translate(147.29352, 196.874987)"><g><path d="M 12.671875 -5.367188 L 21.246094 -5.367188 C 22.28125 -5.367188 23.210938 -5.625 24.027344 -6.140625 C 24.859375 -6.660156 25.515625 -7.359375 25.996094 -8.238281 C 26.480469 -9.121094 26.722656 -10.074219 26.722656 -11.101562 L 26.722656 -22.171875 C 26.722656 -22.445312 26.808594 -22.667969 26.980469 -22.835938 C 27.148438 -23.007812 27.371094 -23.09375 27.644531 -23.09375 L 32.601562 -23.09375 C 32.875 -23.09375 33.097656 -23.007812 33.265625 -22.835938 C 33.4375 -22.667969 33.523438 -22.445312 33.523438 -22.171875 L 33.523438 -11.101562 C 33.523438 -9.398438 33.203125 -7.8125 32.558594 -6.351562 C 31.921875 -4.890625 31.035156 -3.617188 29.898438 -2.527344 C 28.765625 -1.4375 27.460938 -0.59375 25.984375 0.0117188 C 24.503906 0.617188 22.921875 0.921875 21.246094 0.921875 L 12.671875 0.921875 C 10.992188 0.921875 9.414062 0.617188 7.929688 0.0117188 C 6.453125 -0.59375 5.148438 -1.4375 4.015625 -2.527344 C 2.882812 -3.617188 1.992188 -4.890625 1.355469 -6.351562 C 0.710938 -7.8125 0.390625 -9.398438 0.390625 -11.101562 L 0.390625 -13.855469 L 0.359375 -19.417969 L 0.359375 -22.171875 C 0.359375 -22.445312 0.445312 -22.667969 0.617188 -22.835938 C 0.785156 -23.007812 1.007812 -23.09375 1.28125 -23.09375 L 6.238281 -23.09375 C 6.511719 -23.09375 6.734375 -23.007812 6.902344 -22.835938 C 7.074219 -22.667969 7.160156 -22.445312 7.160156 -22.171875 L 7.160156 -19.421875 L 7.191406 -13.855469 L 7.191406 -11.101562 C 7.191406 -10.074219 7.433594 -9.121094 7.917969 -8.238281 C 8.398438 -7.359375 9.054688 -6.660156 9.886719 -6.140625 C 10.707031 -5.625 11.632812 -5.367188 12.671875 -5.367188 Z M 12.671875 -4.167969 C 11.402344 -4.167969 10.261719 -4.484375 9.246094 -5.121094 C 8.242188 -5.753906 7.449219 -6.601562 6.863281 -7.660156 C 6.28125 -8.722656 5.992188 -9.867188 5.992188 -11.101562 L 5.992188 -13.851562 L 5.957031 -19.421875 L 5.957031 -22.171875 C 5.957031 -22.113281 5.992188 -22.050781 6.054688 -21.988281 C 6.117188 -21.925781 6.179688 -21.890625 6.238281 -21.890625 L 1.28125 -21.890625 C 1.339844 -21.890625 1.398438 -21.925781 1.464844 -21.988281 C 1.527344 -22.050781 1.558594 -22.113281 1.558594 -22.171875 L 1.558594 -19.425781 L 1.59375 -13.855469 L 1.59375 -11.101562 C 1.59375 -9.566406 1.878906 -8.140625 2.453125 -6.832031 C 3.027344 -5.519531 3.828125 -4.371094 4.847656 -3.390625 C 5.867188 -2.410156 7.046875 -1.644531 8.386719 -1.097656 C 9.722656 -0.554688 11.148438 -0.28125 12.671875 -0.28125 L 21.246094 -0.28125 C 22.765625 -0.28125 24.195312 -0.554688 25.527344 -1.097656 C 26.867188 -1.644531 28.046875 -2.410156 29.066406 -3.390625 C 30.085938 -4.371094 30.886719 -5.519531 31.460938 -6.832031 C 32.035156 -8.140625 32.324219 -9.566406 32.324219 -11.101562 L 32.324219 -22.171875 C 32.324219 -22.113281 32.355469 -22.050781 32.417969 -21.988281 C 32.484375 -21.925781 32.542969 -21.890625 32.601562 -21.890625 L 27.644531 -21.890625 C 27.703125 -21.890625 27.765625 -21.925781 27.828125 -21.988281 C 27.890625 -22.050781 27.921875 -22.113281 27.921875 -22.171875 L 27.921875 -11.101562 C 27.921875 -9.867188 27.632812 -8.722656 27.050781 -7.660156 C 26.464844 -6.601562 25.671875 -5.753906 24.667969 -5.121094 C 23.652344 -4.484375 22.511719 -4.167969 21.246094 -4.167969 Z M 5.671875 -11.101562 L 5.640625 -22.171875 L 6.238281 -22.171875 L 6.238281 -21.574219 L 1.28125 -21.574219 L 1.28125 -22.171875 L 1.878906 -22.175781 L 1.910156 -11.105469 C 1.910156 -9.628906 2.1875 -8.25 2.742188 -6.972656 C 3.296875 -5.691406 4.066406 -4.578125 5.054688 -3.632812 C 6.046875 -2.683594 7.191406 -1.9375 8.5 -1.402344 C 9.800781 -0.867188 11.191406 -0.601562 12.671875 -0.601562 L 21.246094 -0.601562 C 22.742188 -0.601562 24.140625 -0.867188 25.429688 -1.402344 C 26.726562 -1.9375 27.871094 -2.683594 28.859375 -3.632812 C 29.847656 -4.578125 30.617188 -5.691406 31.171875 -6.972656 C 31.726562 -8.25 32.003906 -9.628906 32.003906 -11.101562 L 32.003906 -22.171875 L 32.601562 -22.171875 L 32.601562 -21.574219 L 27.644531 -21.574219 L 27.644531 -22.171875 L 28.242188 -22.171875 L 28.242188 -11.101562 C 28.242188 -9.710938 27.917969 -8.46875 27.261719 -7.371094 C 26.613281 -6.28125 25.761719 -5.421875 24.703125 -4.796875 C 23.636719 -4.164062 22.484375 -3.847656 21.246094 -3.847656 L 12.671875 -3.847656 C 11.429688 -3.847656 10.277344 -4.164062 9.210938 -4.796875 C 8.15625 -5.421875 7.300781 -6.28125 6.652344 -7.371094 C 5.996094 -8.46875 5.671875 -9.710938 5.671875 -11.101562 Z M 6.871094 -11.101562 C 6.871094 -9.933594 7.140625 -8.894531 7.683594 -7.984375 C 8.226562 -7.070312 8.941406 -6.351562 9.824219 -5.828125 C 10.699219 -5.308594 11.648438 -5.046875 12.671875 -5.046875 L 21.246094 -5.046875 C 22.265625 -5.046875 23.214844 -5.308594 24.089844 -5.828125 C 24.972656 -6.351562 25.6875 -7.070312 26.230469 -7.984375 C 26.773438 -8.894531 27.042969 -9.933594 27.042969 -11.101562 L 27.042969 -22.773438 L 33.203125 -22.773438 L 33.203125 -11.101562 C 33.203125 -9.460938 32.894531 -7.925781 32.273438 -6.496094 C 31.65625 -5.066406 30.792969 -3.824219 29.691406 -2.765625 C 28.589844 -1.710938 27.324219 -0.886719 25.890625 -0.292969 C 24.449219 0.300781 22.902344 0.601562 21.246094 0.601562 L 12.671875 0.601562 C 11.035156 0.601562 9.492188 0.300781 8.042969 -0.292969 C 6.597656 -0.886719 5.324219 -1.710938 4.222656 -2.765625 C 3.121094 -3.824219 2.257812 -5.066406 1.640625 -6.496094 C 1.023438 -7.925781 0.710938 -9.460938 0.710938 -11.101562 L 0.679688 -22.773438 L 6.835938 -22.773438 L 6.871094 -11.105469 Z M 6.871094 -11.101562 "/></g></g></g><g fill="#3e71ed" fill-opacity="1"><g transform="translate(183.701191, 196.874987)"><g><path d="M 24.253906 0.886719 L 2.238281 0.886719 C 1.96875 0.886719 1.746094 0.800781 1.574219 0.632812 C 1.40625 0.460938 1.320312 0.242188 1.320312 -0.03125 L 1.320312 -4.480469 C 1.320312 -4.75 1.40625 -4.972656 1.574219 -5.144531 C 1.746094 -5.3125 1.96875 -5.398438 2.238281 -5.398438 L 24.253906 -5.398438 C 24.796875 -5.398438 25.234375 -5.558594 25.566406 -5.875 C 25.890625 -6.183594 26.050781 -6.589844 26.050781 -7.101562 C 26.050781 -7.640625 25.886719 -8.074219 25.554688 -8.40625 C 25.226562 -8.738281 24.789062 -8.902344 24.253906 -8.902344 L 8.414062 -8.902344 C 7.070312 -8.902344 5.792969 -9.171875 4.574219 -9.703125 C 3.332031 -10.25 2.328125 -11.050781 1.5625 -12.109375 C 0.78125 -13.183594 0.390625 -14.492188 0.390625 -16.03125 C 0.390625 -17.566406 0.78125 -18.875 1.5625 -19.949219 C 2.328125 -21.007812 3.328125 -21.808594 4.554688 -22.351562 C 5.765625 -22.890625 7.050781 -23.15625 8.414062 -23.15625 L 29.882812 -23.15625 C 30.15625 -23.15625 30.378906 -23.070312 30.546875 -22.902344 C 30.71875 -22.730469 30.804688 -22.507812 30.804688 -22.238281 L 30.804688 -17.820312 C 30.804688 -17.550781 30.71875 -17.328125 30.546875 -17.15625 C 30.378906 -16.988281 30.15625 -16.902344 29.882812 -16.902344 L 8.414062 -16.902344 C 8.101562 -16.902344 7.855469 -16.816406 7.671875 -16.644531 C 7.5 -16.488281 7.414062 -16.269531 7.414062 -15.996094 C 7.414062 -15.734375 7.496094 -15.535156 7.652344 -15.398438 C 7.839844 -15.238281 8.09375 -15.15625 8.414062 -15.15625 L 24.253906 -15.15625 C 25.8125 -15.15625 27.257812 -14.84375 28.585938 -14.222656 C 29.933594 -13.585938 31.015625 -12.671875 31.835938 -11.472656 C 32.660156 -10.261719 33.074219 -8.804688 33.074219 -7.101562 C 33.074219 -5.421875 32.65625 -3.972656 31.816406 -2.761719 C 30.988281 -1.5625 29.898438 -0.652344 28.550781 -0.03125 C 27.222656 0.582031 25.789062 0.886719 24.253906 0.886719 Z M 24.253906 -0.3125 C 25.613281 -0.3125 26.878906 -0.582031 28.046875 -1.121094 C 29.195312 -1.652344 30.125 -2.425781 30.828125 -3.445312 C 31.527344 -4.453125 31.875 -5.671875 31.875 -7.101562 C 31.875 -8.558594 31.53125 -9.789062 30.84375 -10.796875 C 30.148438 -11.816406 29.226562 -12.59375 28.078125 -13.136719 C 26.910156 -13.683594 25.632812 -13.957031 24.253906 -13.957031 L 8.414062 -13.957031 C 7.796875 -13.957031 7.285156 -14.132812 6.871094 -14.484375 C 6.433594 -14.863281 6.214844 -15.367188 6.214844 -15.996094 C 6.214844 -16.621094 6.429688 -17.128906 6.855469 -17.523438 C 7.269531 -17.910156 7.789062 -18.101562 8.414062 -18.101562 L 29.882812 -18.101562 C 29.824219 -18.101562 29.761719 -18.070312 29.699219 -18.003906 C 29.636719 -17.941406 29.601562 -17.878906 29.601562 -17.820312 L 29.601562 -22.238281 C 29.601562 -22.175781 29.636719 -22.117188 29.699219 -22.050781 C 29.761719 -21.988281 29.824219 -21.957031 29.882812 -21.957031 L 8.414062 -21.957031 C 7.21875 -21.957031 6.09375 -21.722656 5.042969 -21.257812 C 4.011719 -20.796875 3.175781 -20.128906 2.535156 -19.246094 C 1.90625 -18.378906 1.59375 -17.308594 1.59375 -16.03125 C 1.59375 -14.75 1.90625 -13.679688 2.535156 -12.8125 C 3.171875 -11.929688 4.015625 -11.261719 5.054688 -10.804688 C 6.121094 -10.335938 7.238281 -10.101562 8.414062 -10.101562 L 24.253906 -10.101562 C 25.121094 -10.101562 25.839844 -9.820312 26.402344 -9.253906 C 26.96875 -8.691406 27.25 -7.972656 27.25 -7.101562 C 27.25 -6.25 26.964844 -5.550781 26.394531 -5.003906 C 25.828125 -4.46875 25.117188 -4.199219 24.253906 -4.199219 L 2.238281 -4.199219 C 2.296875 -4.199219 2.359375 -4.230469 2.425781 -4.296875 C 2.488281 -4.359375 2.519531 -4.421875 2.519531 -4.480469 L 2.519531 -0.03125 C 2.519531 -0.0898438 2.488281 -0.152344 2.425781 -0.214844 C 2.359375 -0.28125 2.296875 -0.3125 2.238281 -0.3125 Z M 24.253906 -13.636719 L 8.414062 -13.636719 C 7.59375 -13.636719 6.964844 -13.886719 6.523438 -14.382812 C 6.101562 -14.863281 5.898438 -15.417969 5.910156 -16.042969 C 5.925781 -16.660156 6.140625 -17.203125 6.558594 -17.675781 C 6.996094 -18.171875 7.617188 -18.421875 8.414062 -18.421875 L 29.882812 -18.421875 L 29.882812 -17.820312 L 29.285156 -17.820312 L 29.285156 -22.238281 L 29.882812 -22.238281 L 29.882812 -21.636719 L 8.414062 -21.636719 C 6.941406 -21.636719 5.730469 -21.363281 4.777344 -20.820312 C 3.828125 -20.277344 3.113281 -19.582031 2.632812 -18.742188 C 2.152344 -17.894531 1.910156 -16.992188 1.910156 -16.03125 C 1.910156 -15.066406 2.148438 -14.160156 2.621094 -13.3125 C 3.085938 -12.472656 3.800781 -11.78125 4.757812 -11.242188 C 5.722656 -10.695312 6.941406 -10.421875 8.414062 -10.421875 L 24.253906 -10.421875 C 25.101562 -10.421875 25.796875 -10.195312 26.347656 -9.742188 C 26.878906 -9.296875 27.238281 -8.757812 27.421875 -8.117188 C 27.601562 -7.488281 27.605469 -6.855469 27.441406 -6.214844 C 27.269531 -5.558594 26.921875 -5.011719 26.402344 -4.566406 C 25.863281 -4.109375 25.144531 -3.878906 24.253906 -3.878906 L 2.238281 -3.878906 L 2.238281 -4.480469 L 2.839844 -4.480469 L 2.839844 -0.03125 L 2.238281 -0.03125 L 2.238281 -0.632812 L 24.253906 -0.632812 C 25.675781 -0.632812 26.886719 -0.867188 27.882812 -1.339844 C 28.871094 -1.8125 29.65625 -2.429688 30.238281 -3.195312 C 30.824219 -3.964844 31.214844 -4.8125 31.40625 -5.738281 C 31.601562 -6.667969 31.597656 -7.597656 31.394531 -8.523438 C 31.1875 -9.453125 30.792969 -10.300781 30.207031 -11.074219 C 29.625 -11.839844 28.839844 -12.457031 27.851562 -12.929688 C 26.855469 -13.402344 25.65625 -13.636719 24.253906 -13.636719 Z M 24.253906 -14.835938 C 25.835938 -14.835938 27.207031 -14.5625 28.363281 -14.011719 C 29.53125 -13.457031 30.460938 -12.722656 31.160156 -11.800781 C 31.855469 -10.890625 32.320312 -9.882812 32.566406 -8.785156 C 32.808594 -7.6875 32.8125 -6.589844 32.582031 -5.492188 C 32.351562 -4.390625 31.886719 -3.382812 31.191406 -2.46875 C 30.496094 -1.546875 29.5625 -0.8125 28.398438 -0.257812 C 27.238281 0.292969 25.855469 0.566406 24.253906 0.566406 L 1.640625 0.566406 L 1.640625 -5.078125 L 24.253906 -5.078125 C 24.851562 -5.078125 25.308594 -5.214844 25.625 -5.480469 C 25.953125 -5.761719 26.171875 -6.105469 26.277344 -6.519531 C 26.390625 -6.945312 26.386719 -7.367188 26.265625 -7.785156 C 26.152344 -8.191406 25.921875 -8.53125 25.582031 -8.816406 C 25.253906 -9.085938 24.8125 -9.222656 24.253906 -9.222656 L 8.414062 -9.222656 C 6.730469 -9.222656 5.316406 -9.546875 4.167969 -10.195312 C 3.015625 -10.847656 2.148438 -11.691406 1.570312 -12.730469 C 1 -13.757812 0.710938 -14.859375 0.710938 -16.03125 C 0.710938 -17.203125 1.003906 -18.304688 1.589844 -19.332031 C 2.175781 -20.367188 3.042969 -21.210938 4.179688 -21.863281 C 5.320312 -22.511719 6.730469 -22.835938 8.414062 -22.835938 L 30.484375 -22.835938 L 30.484375 -17.222656 L 8.414062 -17.222656 C 7.976562 -17.222656 7.65625 -17.109375 7.457031 -16.878906 C 7.234375 -16.628906 7.117188 -16.339844 7.109375 -16.015625 C 7.105469 -15.703125 7.207031 -15.425781 7.425781 -15.179688 C 7.625 -14.953125 7.957031 -14.835938 8.414062 -14.835938 Z M 24.253906 -14.835938 "/></g></g></g><g fill="#ffffff" fill-opacity="1"><g transform="translate(228.763993, 196.874987)"><g><path d="M 12.640625 -4.453125 L 32.578125 -4.453125 L 32.578125 0 L 12.640625 0 C 11.078125 0 9.609375 -0.28125 8.234375 -0.84375 C 6.859375 -1.414062 5.648438 -2.203125 4.609375 -3.203125 C 3.566406 -4.203125 2.75 -5.378906 2.15625 -6.734375 C 1.570312 -8.085938 1.28125 -9.546875 1.28125 -11.109375 C 1.28125 -12.679688 1.570312 -14.140625 2.15625 -15.484375 C 2.75 -16.828125 3.566406 -18 4.609375 -19 C 5.648438 -20.007812 6.859375 -20.796875 8.234375 -21.359375 C 9.609375 -21.921875 11.078125 -22.203125 12.640625 -22.203125 L 32.578125 -22.203125 L 32.578125 -17.765625 L 12.640625 -17.765625 C 11.503906 -17.765625 10.472656 -17.472656 9.546875 -16.890625 C 8.617188 -16.316406 7.878906 -15.53125 7.328125 -14.53125 C 6.773438 -13.53125 6.5 -12.390625 6.5 -11.109375 C 6.5 -9.828125 6.773438 -8.679688 7.328125 -7.671875 C 7.878906 -6.671875 8.617188 -5.882812 9.546875 -5.3125 C 10.472656 -4.738281 11.503906 -4.453125 12.640625 -4.453125 Z M 12.640625 -4.453125 "/></g></g></g><g fill="#ffffff" fill-opacity="1"><g transform="translate(265.139678, 196.874987)"><g><path d="M 21.21875 -22.171875 C 22.789062 -22.171875 24.257812 -21.890625 25.625 -21.328125 C 27 -20.765625 28.207031 -19.976562 29.25 -18.96875 C 30.289062 -17.96875 31.101562 -16.796875 31.6875 -15.453125 C 32.28125 -14.109375 32.578125 -12.648438 32.578125 -11.078125 C 32.578125 -9.515625 32.28125 -8.054688 31.6875 -6.703125 C 31.101562 -5.347656 30.289062 -4.164062 29.25 -3.15625 C 28.207031 -2.15625 27 -1.375 25.625 -0.8125 C 24.257812 -0.25 22.789062 0.03125 21.21875 0.03125 L 12.640625 0.03125 C 11.078125 0.03125 9.609375 -0.25 8.234375 -0.8125 C 6.859375 -1.375 5.648438 -2.15625 4.609375 -3.15625 C 3.566406 -4.164062 2.75 -5.347656 2.15625 -6.703125 C 1.570312 -8.054688 1.28125 -9.515625 1.28125 -11.078125 C 1.28125 -12.648438 1.570312 -14.109375 2.15625 -15.453125 C 2.75 -16.796875 3.566406 -17.96875 4.609375 -18.96875 C 5.648438 -19.976562 6.859375 -20.765625 8.234375 -21.328125 C 9.609375 -21.890625 11.078125 -22.171875 12.640625 -22.171875 Z M 12.640625 -4.421875 L 21.21875 -4.421875 C 22.34375 -4.421875 23.367188 -4.707031 24.296875 -5.28125 C 25.234375 -5.851562 25.976562 -6.640625 26.53125 -7.640625 C 27.082031 -8.648438 27.359375 -9.796875 27.359375 -11.078125 C 27.359375 -12.347656 27.082031 -13.484375 26.53125 -14.484375 C 25.976562 -15.492188 25.234375 -16.285156 24.296875 -16.859375 C 23.367188 -17.441406 22.34375 -17.734375 21.21875 -17.734375 L 12.640625 -17.734375 C 11.503906 -17.734375 10.472656 -17.441406 9.546875 -16.859375 C 8.617188 -16.285156 7.878906 -15.492188 7.328125 -14.484375 C 6.773438 -13.484375 6.5 -12.347656 6.5 -11.078125 C 6.5 -9.796875 6.773438 -8.648438 7.328125 -7.640625 C 7.878906 -6.640625 8.617188 -5.851562 9.546875 -5.28125 C 10.472656 -4.707031 11.503906 -4.421875 12.640625 -4.421875 Z M 12.640625 -4.421875 "/></g></g></g><g fill="#ffffff" fill-opacity="1"><g transform="translate(301.515362, 196.874987)"><g><path d="M 22.71875 -22.203125 C 24.445312 -22.203125 25.929688 -21.898438 27.171875 -21.296875 C 28.410156 -20.691406 29.394531 -19.882812 30.125 -18.875 C 30.863281 -17.875 31.359375 -16.773438 31.609375 -15.578125 C 31.867188 -14.390625 31.875 -13.195312 31.625 -12 C 31.382812 -10.800781 30.890625 -9.703125 30.140625 -8.703125 C 29.398438 -7.703125 28.410156 -6.894531 27.171875 -6.28125 C 25.929688 -5.675781 24.445312 -5.375 22.71875 -5.375 L 6.265625 -5.375 L 6.265625 0.03125 L 1.28125 0.03125 L 1.28125 -22.203125 Z M 6.265625 -9.796875 L 22.71875 -9.796875 C 23.757812 -9.796875 24.59375 -10.066406 25.21875 -10.609375 C 25.851562 -11.148438 26.269531 -11.816406 26.46875 -12.609375 C 26.675781 -13.398438 26.671875 -14.191406 26.453125 -14.984375 C 26.242188 -15.785156 25.820312 -16.453125 25.1875 -16.984375 C 24.5625 -17.523438 23.738281 -17.796875 22.71875 -17.796875 L 6.265625 -17.796875 Z M 6.265625 -9.796875 "/></g></g></g><g fill="#ffffff" fill-opacity="1"><g transform="translate(337.123228, 196.874987)"><g><path d="M 21.21875 -22.171875 C 22.789062 -22.171875 24.257812 -21.890625 25.625 -21.328125 C 27 -20.765625 28.207031 -19.976562 29.25 -18.96875 C 30.289062 -17.96875 31.101562 -16.796875 31.6875 -15.453125 C 32.28125 -14.109375 32.578125 -12.648438 32.578125 -11.078125 C 32.578125 -9.515625 32.28125 -8.054688 31.6875 -6.703125 C 31.101562 -5.347656 30.289062 -4.164062 29.25 -3.15625 C 28.207031 -2.15625 27 -1.375 25.625 -0.8125 C 24.257812 -0.25 22.789062 0.03125 21.21875 0.03125 L 12.640625 0.03125 C 11.078125 0.03125 9.609375 -0.25 8.234375 -0.8125 C 6.859375 -1.375 5.648438 -2.15625 4.609375 -3.15625 C 3.566406 -4.164062 2.75 -5.347656 2.15625 -6.703125 C 1.570312 -8.054688 1.28125 -9.515625 1.28125 -11.078125 C 1.28125 -12.648438 1.570312 -14.109375 2.15625 -15.453125 C 2.75 -16.796875 3.566406 -17.96875 4.609375 -18.96875 C 5.648438 -19.976562 6.859375 -20.765625 8.234375 -21.328125 C 9.609375 -21.890625 11.078125 -22.171875 12.640625 -22.171875 Z M 12.640625 -4.421875 L 21.21875 -4.421875 C 22.34375 -4.421875 23.367188 -4.707031 24.296875 -5.28125 C 25.234375 -5.851562 25.976562 -6.640625 26.53125 -7.640625 C 27.082031 -8.648438 27.359375 -9.796875 27.359375 -11.078125 C 27.359375 -12.347656 27.082031 -13.484375 26.53125 -14.484375 C 25.976562 -15.492188 25.234375 -16.285156 24.296875 -16.859375 C 23.367188 -17.441406 22.34375 -17.734375 21.21875 -17.734375 L 12.640625 -17.734375 C 11.503906 -17.734375 10.472656 -17.441406 9.546875 -16.859375 C 8.617188 -16.285156 7.878906 -15.492188 7.328125 -14.484375 C 6.773438 -13.484375 6.5 -12.347656 6.5 -11.078125 C 6.5 -9.796875 6.773438 -8.648438 7.328125 -7.640625 C 7.878906 -6.640625 8.617188 -5.851562 9.546875 -5.28125 C 10.472656 -4.707031 11.503906 -4.421875 12.640625 -4.421875 Z M 12.640625 -4.421875 "/></g></g></g></svg>